<svg width="127" height="20" viewBox="0 0 127 20" fill="none" xmlns="http://www.w3.org/2000/svg">
<path d="M34.5545 15.847C37.1648 15.847 39.2699 14.225 40.0021 11.631H36.4354C36.0912 12.296 35.392 12.697 34.5545 12.697C33.4224 12.697 32.6645 12.023 32.4311 10.719H40.1559C40.2026 10.367 40.23 10.025 40.23 9.682C40.23 6.347 37.908 3.732 34.5545 3.732C31.2889 3.732 28.9028 6.296 28.9028 9.781C28.9028 13.254 31.3081 15.847 34.5545 15.847V15.847ZM36.6999 8.55H32.4934C32.7835 7.421 33.5093 6.801 34.5545 6.801C35.6355 6.801 36.385 7.414 36.6999 8.551V8.55ZM46.7183 15.846C47.9264 15.846 49.0064 15.412 49.8576 14.658L50.1651 15.462H52.9356V4.093H50.264L49.8979 4.973C49.0375 4.198 47.9438 3.751 46.7183 3.751C43.5369 3.751 41.2624 6.256 41.2624 9.777C41.2624 13.31 43.5369 15.847 46.7183 15.847V15.846ZM47.1979 12.379C45.8552 12.379 44.8686 11.271 44.8686 9.786C44.8686 8.311 45.847 7.203 47.1979 7.203C48.5396 7.203 49.5263 8.311 49.5263 9.786C49.5263 11.271 48.5396 12.379 47.1979 12.379ZM59.2088 15.846C61.9729 15.846 63.8079 14.292 63.8079 11.916C63.8079 9.033 61.6232 8.66 59.9794 8.341C58.9909 8.148 58.1947 7.997 58.1947 7.351C58.1947 6.824 58.5809 6.513 59.1557 6.513C59.8055 6.513 60.2513 6.85 60.2513 7.576H63.6075C63.5672 5.273 61.8502 3.733 59.1996 3.733C56.5344 3.733 54.757 5.203 54.757 7.483C54.757 10.24 56.8959 10.772 58.5095 11.057C59.509 11.238 60.2961 11.425 60.2961 12.081C60.2961 12.668 59.7991 12.961 59.2747 12.961C58.5956 12.961 58.0665 12.578 58.0665 11.747H54.616C54.649 14.21 56.3724 15.847 59.2088 15.847V15.846ZM66.6224 19.704C69.3095 19.704 70.5982 18.447 72.0013 14.968L76.3616 4.105H72.512L70.4536 10.368L68.246 4.105H64.3516L68.6515 14.535C68.1664 15.949 67.7518 16.339 66.3816 16.339H65.395V19.704H66.6224ZM83.5582 15.846C86.7616 15.846 89.0251 13.331 89.0251 9.798C89.0251 6.265 86.7626 3.75 83.5582 3.75C82.6463 3.74223 81.7505 4.01383 80.9727 4.534V0H77.4306V15.474H80.0821L80.4208 14.63C81.2655 15.401 82.3446 15.846 83.5582 15.846ZM83.0796 12.379C81.7369 12.379 80.7502 11.271 80.7502 9.799C80.7502 8.313 81.7369 7.205 83.0796 7.205C84.4213 7.205 85.408 8.313 85.408 9.798C85.408 11.271 84.4131 12.378 83.0796 12.378V12.379ZM95.5252 15.846C96.7334 15.846 97.8134 15.412 98.6646 14.658L98.9721 15.462H101.743V4.093H99.0718L98.7048 4.973C97.8454 4.198 96.7508 3.751 95.5252 3.751C92.3438 3.751 90.0703 6.256 90.0703 9.777C90.0703 13.31 92.3438 15.847 95.5252 15.847V15.846ZM96.0048 12.379C94.6621 12.379 93.6755 11.271 93.6755 9.786C93.6755 8.311 94.6548 7.203 96.0048 7.203C97.3475 7.203 98.3341 8.311 98.3341 9.786C98.3341 11.271 97.3475 12.379 96.0048 12.379ZM107.586 15.474V9.403C107.586 7.956 108.228 7.103 109.346 7.103C110.248 7.103 110.703 7.76 110.703 9.083V15.473H114.286V8.543C114.286 5.646 112.7 3.77 110.284 3.77C108.938 3.77 107.782 4.335 107.007 5.278L106.516 4.106H104.001V15.475H107.586V15.474ZM120.168 15.474V10.666L122.775 15.474H127L123.429 9.524L126.671 4.105H122.647L120.168 8.559V0H116.584V15.474H120.168V15.474Z" fill="white"/>
<path fill-rule="evenodd" clip-rule="evenodd" d="M9.88659 0L0 19.704H5.47872L15.3662 0H9.88659Z" fill="url(#paint0_linear_17_54)"/>
<path opacity="0.5" fill-rule="evenodd" clip-rule="evenodd" d="M16.6312 0L6.74365 19.704H12.2224L22.1099 0H16.6312Z" fill="url(#paint1_linear_17_54)"/>
<path opacity="0.15" fill-rule="evenodd" clip-rule="evenodd" d="M23.3746 0L13.488 19.704H18.9668L28.8534 0H23.3746Z" fill="url(#paint2_linear_17_54)"/>
<defs>
<linearGradient id="paint0_linear_17_54" x1="11.0936" y1="-7.1397e-07" x2="-0.939893" y2="17.1586" gradientUnits="userSpaceOnUse">
<stop stop-color="#33D35E"/>
<stop offset="1" stop-color="#2AB6D9"/>
</linearGradient>
<linearGradient id="paint1_linear_17_54" x1="17.8373" y1="-7.1397e-07" x2="5.80376" y2="17.1586" gradientUnits="userSpaceOnUse">
<stop stop-color="#33D35E"/>
<stop offset="1" stop-color="#2AB6D9"/>
</linearGradient>
<linearGradient id="paint2_linear_17_54" x1="24.581" y1="-7.1397e-07" x2="12.5472" y2="17.158" gradientUnits="userSpaceOnUse">
<stop stop-color="#33D35E"/>
<stop offset="1" stop-color="#2AB6D9"/>
</linearGradient>
</defs>
</svg>
