<svg width="58" height="28" viewBox="0 0 58 28" fill="none" xmlns="http://www.w3.org/2000/svg">
<circle cx="3.51515" cy="23.903" r="3.51515" transform="rotate(-90 3.51515 23.903)" fill="#68BED0" fill-opacity="0.5"/>
<circle cx="3.51515" cy="13.7091" r="3.51515" transform="rotate(-90 3.51515 13.7091)" fill="#68BED0" fill-opacity="0.5"/>
<circle cx="3.51515" cy="3.51515" r="3.51515" transform="rotate(-90 3.51515 3.51515)" fill="#68BED0" fill-opacity="0.5"/>
<circle cx="13.7091" cy="13.7091" r="3.51515" transform="rotate(-90 13.7091 13.7091)" fill="#68BED0" fill-opacity="0.5"/>
<circle cx="13.7091" cy="3.51515" r="3.51515" transform="rotate(-90 13.7091 3.51515)" fill="#68BED0" fill-opacity="0.5"/>
<circle cx="13.7091" cy="23.903" r="3.51515" transform="rotate(-90 13.7091 23.903)" fill="#68BED0" fill-opacity="0.5"/>
<circle cx="23.903" cy="23.903" r="3.51515" transform="rotate(-90 23.903 23.903)" fill="#68BED0" fill-opacity="0.5"/>
<circle cx="23.903" cy="13.7091" r="3.51515" transform="rotate(-90 23.903 13.7091)" fill="#68BED0" fill-opacity="0.5"/>
<circle cx="23.903" cy="3.51515" r="3.51515" transform="rotate(-90 23.903 3.51515)" fill="#68BED0" fill-opacity="0.5"/>
<circle cx="34.097" cy="3.51515" r="3.51515" transform="rotate(-90 34.097 3.51515)" fill="#68BED0" fill-opacity="0.5"/>
<circle cx="34.097" cy="13.7091" r="3.51515" transform="rotate(-90 34.097 13.7091)" fill="#68BED0" fill-opacity="0.5"/>
<circle cx="34.097" cy="23.903" r="3.51515" transform="rotate(-90 34.097 23.903)" fill="#68BED0" fill-opacity="0.5"/>
<circle cx="44.2909" cy="23.903" r="3.51515" transform="rotate(-90 44.2909 23.903)" fill="#68BED0" fill-opacity="0.5"/>
<circle cx="54.4848" cy="23.903" r="3.51515" transform="rotate(-90 54.4848 23.903)" fill="#68BED0" fill-opacity="0.5"/>
<circle cx="44.2909" cy="13.7091" r="3.51515" transform="rotate(-90 44.2909 13.7091)" fill="#68BED0" fill-opacity="0.5"/>
<circle cx="54.4848" cy="13.7091" r="3.51515" transform="rotate(-90 54.4848 13.7091)" fill="#68BED0" fill-opacity="0.5"/>
<circle cx="44.2909" cy="3.51515" r="3.51515" transform="rotate(-90 44.2909 3.51515)" fill="#68BED0" fill-opacity="0.5"/>
<circle cx="54.4848" cy="3.51515" r="3.51515" transform="rotate(-90 54.4848 3.51515)" fill="#68BED0" fill-opacity="0.5"/>
</svg>
